<svg id="visual" viewBox="0 0 960 540" width="960" height="540" xmlns="http://www.w3.org/2000/svg" xmlns:xlink="http://www.w3.org/1999/xlink" version="1.1"><g stroke-width="1" stroke-linejoin="bevel"><path d="M474.8 292L479.8 305L546.7 290Z" fill="#0c2435" stroke="#0c2435"></path><path d="M546.7 290L516.2 242L474.8 292Z" fill="#297ea6" stroke="#297ea6"></path><path d="M527.2 329L553.7 302L546.7 290Z" fill="#0c2435" stroke="#0c2435"></path><path d="M479.8 305L527.2 329L546.7 290Z" fill="#112e42" stroke="#112e42"></path><path d="M597.7 219L508.2 205L516.2 242Z" fill="#15384f" stroke="#15384f"></path><path d="M516.2 242L445.8 223L474.8 292Z" fill="#19435d" stroke="#19435d"></path><path d="M597.7 219L516.2 242L546.7 290Z" fill="#00101c" stroke="#00101c"></path><path d="M422.3 347L476.2 365L479.8 305Z" fill="#081a28" stroke="#081a28"></path><path d="M479.8 305L476.2 365L527.2 329Z" fill="#1d4e6b" stroke="#1d4e6b"></path><path d="M508.2 205L445.8 223L516.2 242Z" fill="#15384f" stroke="#15384f"></path><path d="M474.8 292L422.3 347L479.8 305Z" fill="#00101c" stroke="#00101c"></path><path d="M384.3 334L422.3 347L474.8 292Z" fill="#081a28" stroke="#081a28"></path><path d="M631.2 248L597.7 219L546.7 290Z" fill="#112e42" stroke="#112e42"></path><path d="M527.2 329L621.2 342L553.7 302Z" fill="#1d4e6b" stroke="#1d4e6b"></path><path d="M553.7 302L631.2 248L546.7 290Z" fill="#081a28" stroke="#081a28"></path><path d="M590.7 393L621.2 342L527.2 329Z" fill="#277297" stroke="#277297"></path><path d="M621.2 342L631.2 248L553.7 302Z" fill="#0c2435" stroke="#0c2435"></path><path d="M433.8 401L494.2 411L476.2 365Z" fill="#15384f" stroke="#15384f"></path><path d="M476.2 365L494.2 411L527.2 329Z" fill="#297ea6" stroke="#297ea6"></path><path d="M566.7 156L523.2 155L508.2 205Z" fill="#277297" stroke="#277297"></path><path d="M508.2 205L413.3 147L445.8 223Z" fill="#297ea6" stroke="#297ea6"></path><path d="M494.2 411L590.7 393L527.2 329Z" fill="#246688" stroke="#246688"></path><path d="M362.3 277L384.3 334L474.8 292Z" fill="#112e42" stroke="#112e42"></path><path d="M422.3 347L433.8 401L476.2 365Z" fill="#246688" stroke="#246688"></path><path d="M360.8 404L433.8 401L422.3 347Z" fill="#1d4e6b" stroke="#1d4e6b"></path><path d="M590.7 393L614.2 380L621.2 342Z" fill="#246688" stroke="#246688"></path><path d="M597.7 219L566.7 156L508.2 205Z" fill="#19435d" stroke="#19435d"></path><path d="M628.2 201L566.7 156L597.7 219Z" fill="#00101c" stroke="#00101c"></path><path d="M712.6 298L654.6 275L621.2 342Z" fill="#0c2435" stroke="#0c2435"></path><path d="M621.2 342L654.6 275L631.2 248Z" fill="#0c2435" stroke="#0c2435"></path><path d="M643.6 227L628.2 201L597.7 219Z" fill="#1d4e6b" stroke="#1d4e6b"></path><path d="M643.6 227L597.7 219L631.2 248Z" fill="#277297" stroke="#277297"></path><path d="M654.6 275L643.6 227L631.2 248Z" fill="#246688" stroke="#246688"></path><path d="M349.8 248L362.3 277L445.8 223Z" fill="#277297" stroke="#277297"></path><path d="M445.8 223L362.3 277L474.8 292Z" fill="#277297" stroke="#277297"></path><path d="M362.3 277L357.8 294L384.3 334Z" fill="#15384f" stroke="#15384f"></path><path d="M413.3 147L380.3 195L445.8 223Z" fill="#205a7a" stroke="#205a7a"></path><path d="M362.3 277L315.4 270L357.8 294Z" fill="#246688" stroke="#246688"></path><path d="M380.3 195L349.8 248L445.8 223Z" fill="#15384f" stroke="#15384f"></path><path d="M643.6 227L635.2 176L628.2 201Z" fill="#277297" stroke="#277297"></path><path d="M628.2 201L635.2 176L566.7 156Z" fill="#246688" stroke="#246688"></path><path d="M651.6 139L635.2 176L707.6 168Z" fill="#205a7a" stroke="#205a7a"></path><path d="M420.8 132L413.3 147L523.2 155Z" fill="#112e42" stroke="#112e42"></path><path d="M523.2 155L413.3 147L508.2 205Z" fill="#0c2435" stroke="#0c2435"></path><path d="M580.7 116L523.2 155L566.7 156Z" fill="#277297" stroke="#277297"></path><path d="M580.7 116L508.2 116L523.2 155Z" fill="#15384f" stroke="#15384f"></path><path d="M443.8 461L528.7 460L494.2 411Z" fill="#19435d" stroke="#19435d"></path><path d="M494.2 411L528.7 460L590.7 393Z" fill="#0c2435" stroke="#0c2435"></path><path d="M590.7 393L591.7 446L614.2 380Z" fill="#277297" stroke="#277297"></path><path d="M508.2 116L420.8 132L523.2 155Z" fill="#19435d" stroke="#19435d"></path><path d="M348.8 145L351.8 196L380.3 195Z" fill="#0c2435" stroke="#0c2435"></path><path d="M364.3 415L440.8 450L433.8 401Z" fill="#112e42" stroke="#112e42"></path><path d="M433.8 401L440.8 450L494.2 411Z" fill="#00101c" stroke="#00101c"></path><path d="M443.8 461L440.8 450L366.3 486Z" fill="#00101c" stroke="#00101c"></path><path d="M528.7 460L591.7 446L590.7 393Z" fill="#0c2435" stroke="#0c2435"></path><path d="M614.2 380L663.6 402L621.2 342Z" fill="#15384f" stroke="#15384f"></path><path d="M348.8 145L380.3 195L354.8 138Z" fill="#00101c" stroke="#00101c"></path><path d="M380.3 195L351.8 196L349.8 248Z" fill="#1d4e6b" stroke="#1d4e6b"></path><path d="M635.2 176L580.7 116L566.7 156Z" fill="#297ea6" stroke="#297ea6"></path><path d="M508.2 116L426.3 119L420.8 132Z" fill="#246688" stroke="#246688"></path><path d="M420.8 132L418.8 118L413.3 147Z" fill="#19435d" stroke="#19435d"></path><path d="M360.8 404L422.3 347L384.3 334Z" fill="#297ea6" stroke="#297ea6"></path><path d="M440.8 450L443.8 461L494.2 411Z" fill="#297ea6" stroke="#297ea6"></path><path d="M325.8 364L384.3 334L357.8 294Z" fill="#19435d" stroke="#19435d"></path><path d="M325.8 364L360.8 404L384.3 334Z" fill="#205a7a" stroke="#205a7a"></path><path d="M418.8 47L418.8 118L426.3 119Z" fill="#277297" stroke="#277297"></path><path d="M426.3 119L418.8 118L420.8 132Z" fill="#112e42" stroke="#112e42"></path><path d="M591.7 446L663.6 402L614.2 380Z" fill="#246688" stroke="#246688"></path><path d="M360.8 404L364.3 415L433.8 401Z" fill="#0c2435" stroke="#0c2435"></path><path d="M351.8 196L315.4 270L349.8 248Z" fill="#0c2435" stroke="#0c2435"></path><path d="M349.8 248L315.4 270L362.3 277Z" fill="#081a28" stroke="#081a28"></path><path d="M258.4 466L357.8 466L364.3 415Z" fill="#297ea6" stroke="#297ea6"></path><path d="M282.4 310L325.8 364L357.8 294Z" fill="#081a28" stroke="#081a28"></path><path d="M663.6 402L712.6 298L621.2 342Z" fill="#0c2435" stroke="#0c2435"></path><path d="M654.6 275L741.1 225L643.6 227Z" fill="#297ea6" stroke="#297ea6"></path><path d="M707.6 168L635.2 176L643.6 227Z" fill="#15384f" stroke="#15384f"></path><path d="M635.2 176L651.6 139L580.7 116Z" fill="#246688" stroke="#246688"></path><path d="M707.6 168L652.2 138L651.6 139Z" fill="#0c2435" stroke="#0c2435"></path><path d="M651.6 139L652.2 138L580.7 116Z" fill="#1d4e6b" stroke="#1d4e6b"></path><path d="M591.7 446L622.2 463L663.6 402Z" fill="#205a7a" stroke="#205a7a"></path><path d="M617.2 477L622.2 463L591.7 446Z" fill="#297ea6" stroke="#297ea6"></path><path d="M617.2 477L591.7 446L576.7 540Z" fill="#112e42" stroke="#112e42"></path><path d="M354.8 138L380.3 195L413.3 147Z" fill="#297ea6" stroke="#297ea6"></path><path d="M259.4 181L250.9 252L315.4 270Z" fill="#205a7a" stroke="#205a7a"></path><path d="M418.8 118L354.8 138L413.3 147Z" fill="#246688" stroke="#246688"></path><path d="M769.1 302L729.1 283L712.6 298Z" fill="#277297" stroke="#277297"></path><path d="M712.6 298L729.1 283L654.6 275Z" fill="#205a7a" stroke="#205a7a"></path><path d="M622.2 463L650.6 460L663.6 402Z" fill="#297ea6" stroke="#297ea6"></path><path d="M576.7 540L591.7 446L528.7 460Z" fill="#00101c" stroke="#00101c"></path><path d="M580.7 116L514.2 65L508.2 116Z" fill="#19435d" stroke="#19435d"></path><path d="M508.2 116L514.2 65L426.3 119Z" fill="#15384f" stroke="#15384f"></path><path d="M418.8 118L362.3 73L354.8 138Z" fill="#081a28" stroke="#081a28"></path><path d="M596.7 28L514.2 65L580.7 116Z" fill="#00101c" stroke="#00101c"></path><path d="M477.2 540L508.2 509L464.8 540Z" fill="#00101c" stroke="#00101c"></path><path d="M443.8 461L508.2 509L528.7 460Z" fill="#277297" stroke="#277297"></path><path d="M647.6 467L650.6 460L622.2 463Z" fill="#0c2435" stroke="#0c2435"></path><path d="M663.6 402L749.1 343L712.6 298Z" fill="#081a28" stroke="#081a28"></path><path d="M617.2 477L647.6 467L622.2 463Z" fill="#246688" stroke="#246688"></path><path d="M650.6 460L717.1 413L663.6 402Z" fill="#0c2435" stroke="#0c2435"></path><path d="M741.1 225L707.6 168L643.6 227Z" fill="#112e42" stroke="#112e42"></path><path d="M250.9 252L282.4 310L315.4 270Z" fill="#15384f" stroke="#15384f"></path><path d="M315.4 270L282.4 310L357.8 294Z" fill="#19435d" stroke="#19435d"></path><path d="M283.4 374L364.3 415L360.8 404Z" fill="#00101c" stroke="#00101c"></path><path d="M671.6 72L616.2 81L652.2 138Z" fill="#081a28" stroke="#081a28"></path><path d="M652.2 138L616.2 81L580.7 116Z" fill="#00101c" stroke="#00101c"></path><path d="M283.4 374L360.8 404L325.8 364Z" fill="#1d4e6b" stroke="#1d4e6b"></path><path d="M364.3 415L357.8 466L440.8 450Z" fill="#15384f" stroke="#15384f"></path><path d="M729.1 283L741.1 225L654.6 275Z" fill="#081a28" stroke="#081a28"></path><path d="M769.1 460L717.1 413L650.6 460Z" fill="#15384f" stroke="#15384f"></path><path d="M729.1 283L768.6 245L741.1 225Z" fill="#246688" stroke="#246688"></path><path d="M282.4 310L283.4 374L325.8 364Z" fill="#297ea6" stroke="#297ea6"></path><path d="M717.1 413L749.1 343L663.6 402Z" fill="#00101c" stroke="#00101c"></path><path d="M342.8 540L366.3 486L283.4 496Z" fill="#081a28" stroke="#081a28"></path><path d="M357.8 466L366.3 486L440.8 450Z" fill="#15384f" stroke="#15384f"></path><path d="M473.2 0L418.8 47L514.2 65Z" fill="#277297" stroke="#277297"></path><path d="M514.2 65L418.8 47L426.3 119Z" fill="#19435d" stroke="#19435d"></path><path d="M354.8 138L297.4 75L348.8 145Z" fill="#297ea6" stroke="#297ea6"></path><path d="M464.8 540L508.2 509L443.8 461Z" fill="#205a7a" stroke="#205a7a"></path><path d="M508.2 509L576.7 540L528.7 460Z" fill="#081a28" stroke="#081a28"></path><path d="M617.2 477L673.6 540L647.6 467Z" fill="#15384f" stroke="#15384f"></path><path d="M401.3 540L464.8 540L443.8 461Z" fill="#081a28" stroke="#081a28"></path><path d="M776.6 323L769.1 302L749.1 343Z" fill="#205a7a" stroke="#205a7a"></path><path d="M749.1 343L769.1 302L712.6 298Z" fill="#297ea6" stroke="#297ea6"></path><path d="M418.8 47L362.3 73L418.8 118Z" fill="#112e42" stroke="#112e42"></path><path d="M259.4 181L315.4 270L351.8 196Z" fill="#1d4e6b" stroke="#1d4e6b"></path><path d="M769.1 302L768.6 245L729.1 283Z" fill="#15384f" stroke="#15384f"></path><path d="M741.1 225L762.1 169L707.6 168Z" fill="#081a28" stroke="#081a28"></path><path d="M259.4 181L351.8 196L348.8 145Z" fill="#0c2435" stroke="#0c2435"></path><path d="M282.4 310L255.9 361L283.4 374Z" fill="#081a28" stroke="#081a28"></path><path d="M477.2 540L576.7 540L508.2 509Z" fill="#1d4e6b" stroke="#1d4e6b"></path><path d="M769.1 460L784.6 394L717.1 413Z" fill="#0c2435" stroke="#0c2435"></path><path d="M201.9 353L255.9 361L282.4 310Z" fill="#00101c" stroke="#00101c"></path><path d="M283.4 496L366.3 486L357.8 466Z" fill="#0c2435" stroke="#0c2435"></path><path d="M735.1 114L671.6 72L652.2 138Z" fill="#246688" stroke="#246688"></path><path d="M616.2 81L596.7 28L580.7 116Z" fill="#112e42" stroke="#112e42"></path><path d="M735.1 114L652.2 138L707.6 168Z" fill="#15384f" stroke="#15384f"></path><path d="M784.6 394L776.6 323L749.1 343Z" fill="#205a7a" stroke="#205a7a"></path><path d="M769.1 302L793.6 262L768.6 245Z" fill="#277297" stroke="#277297"></path><path d="M576.7 540L597.2 540L617.2 477Z" fill="#246688" stroke="#246688"></path><path d="M671.6 72L596.7 28L616.2 81Z" fill="#112e42" stroke="#112e42"></path><path d="M297.4 75L259.4 181L348.8 145Z" fill="#277297" stroke="#277297"></path><path d="M342.8 540L401.3 540L366.3 486Z" fill="#205a7a" stroke="#205a7a"></path><path d="M366.3 486L401.3 540L443.8 461Z" fill="#19435d" stroke="#19435d"></path><path d="M826.1 159L762.1 169L768.6 245Z" fill="#00101c" stroke="#00101c"></path><path d="M768.6 245L762.1 169L741.1 225Z" fill="#297ea6" stroke="#297ea6"></path><path d="M756.6 139L735.1 114L707.6 168Z" fill="#297ea6" stroke="#297ea6"></path><path d="M776.6 323L793.6 262L769.1 302Z" fill="#205a7a" stroke="#205a7a"></path><path d="M210.9 132L247.4 178L259.4 181Z" fill="#112e42" stroke="#112e42"></path><path d="M259.4 181L247.4 178L250.9 252Z" fill="#277297" stroke="#277297"></path><path d="M216.9 453L283.4 374L255.9 361Z" fill="#246688" stroke="#246688"></path><path d="M418.8 47L355.8 46L362.3 73Z" fill="#112e42" stroke="#112e42"></path><path d="M362.3 73L297.4 75L354.8 138Z" fill="#15384f" stroke="#15384f"></path><path d="M411.3 0L355.8 46L418.8 47Z" fill="#246688" stroke="#246688"></path><path d="M776.6 137L756.6 139L762.1 169Z" fill="#246688" stroke="#246688"></path><path d="M762.1 169L756.6 139L707.6 168Z" fill="#277297" stroke="#277297"></path><path d="M551.7 0L473.2 0L514.2 65Z" fill="#205a7a" stroke="#205a7a"></path><path d="M624.2 0L551.7 0L596.7 28Z" fill="#297ea6" stroke="#297ea6"></path><path d="M596.7 28L551.7 0L514.2 65Z" fill="#205a7a" stroke="#205a7a"></path><path d="M714.1 540L650.6 460L647.6 467Z" fill="#19435d" stroke="#19435d"></path><path d="M717.1 413L784.6 394L749.1 343Z" fill="#0c2435" stroke="#0c2435"></path><path d="M776.6 323L816.1 258L793.6 262Z" fill="#1d4e6b" stroke="#1d4e6b"></path><path d="M473.2 0L422.8 0L418.8 47Z" fill="#297ea6" stroke="#297ea6"></path><path d="M355.8 46L297.4 75L362.3 73Z" fill="#19435d" stroke="#19435d"></path><path d="M314.4 25L297.4 75L355.8 46Z" fill="#15384f" stroke="#15384f"></path><path d="M597.2 540L673.6 540L617.2 477Z" fill="#246688" stroke="#246688"></path><path d="M422.8 0L411.3 0L418.8 47Z" fill="#246688" stroke="#246688"></path><path d="M283.4 496L357.8 466L258.4 466Z" fill="#112e42" stroke="#112e42"></path><path d="M826.1 159L776.6 137L762.1 169Z" fill="#081a28" stroke="#081a28"></path><path d="M756.6 139L776.6 137L735.1 114Z" fill="#081a28" stroke="#081a28"></path><path d="M675.6 0L624.2 0L671.6 72Z" fill="#15384f" stroke="#15384f"></path><path d="M857.1 237L816.1 258L896.5 301Z" fill="#0c2435" stroke="#0c2435"></path><path d="M793.6 262L816.1 258L768.6 245Z" fill="#19435d" stroke="#19435d"></path><path d="M671.6 72L624.2 0L596.7 28Z" fill="#246688" stroke="#246688"></path><path d="M700.1 22L671.6 72L735.1 114Z" fill="#00101c" stroke="#00101c"></path><path d="M258.4 466L364.3 415L283.4 374Z" fill="#00101c" stroke="#00101c"></path><path d="M216.9 453L258.4 466L283.4 374Z" fill="#1d4e6b" stroke="#1d4e6b"></path><path d="M201.9 353L282.4 310L250.9 252Z" fill="#297ea6" stroke="#297ea6"></path><path d="M714.1 540L769.1 460L650.6 460Z" fill="#277297" stroke="#277297"></path><path d="M153.4 281L201.9 353L250.9 252Z" fill="#0c2435" stroke="#0c2435"></path><path d="M769.1 460L775.6 460L784.6 394Z" fill="#081a28" stroke="#081a28"></path><path d="M868.1 352L816.1 258L776.6 323Z" fill="#19435d" stroke="#19435d"></path><path d="M798.6 499L775.6 460L769.1 460Z" fill="#297ea6" stroke="#297ea6"></path><path d="M210.9 132L217.9 158L247.4 178Z" fill="#112e42" stroke="#112e42"></path><path d="M247.4 178L183.4 216L250.9 252Z" fill="#15384f" stroke="#15384f"></path><path d="M710.1 0L700.1 22L762.6 0Z" fill="#205a7a" stroke="#205a7a"></path><path d="M283.4 496L308.4 540L342.8 540Z" fill="#0c2435" stroke="#0c2435"></path><path d="M211.9 540L308.4 540L283.4 496Z" fill="#081a28" stroke="#081a28"></path><path d="M673.6 540L714.1 540L647.6 467Z" fill="#15384f" stroke="#15384f"></path><path d="M321.8 0L314.4 25L355.8 46Z" fill="#00101c" stroke="#00101c"></path><path d="M297.4 75L210.9 132L259.4 181Z" fill="#00101c" stroke="#00101c"></path><path d="M700.1 22L675.6 0L671.6 72Z" fill="#081a28" stroke="#081a28"></path><path d="M178.4 172L193.9 186L217.9 158Z" fill="#0c2435" stroke="#0c2435"></path><path d="M217.9 158L193.9 186L247.4 178Z" fill="#19435d" stroke="#19435d"></path><path d="M193.9 186L183.4 216L247.4 178Z" fill="#1d4e6b" stroke="#1d4e6b"></path><path d="M172.4 109L210.9 132L194.9 52Z" fill="#0c2435" stroke="#0c2435"></path><path d="M193.9 186L178.4 172L183.4 216Z" fill="#00101c" stroke="#00101c"></path><path d="M185.4 404L216.9 453L255.9 361Z" fill="#19435d" stroke="#19435d"></path><path d="M258.4 466L223.9 481L283.4 496Z" fill="#205a7a" stroke="#205a7a"></path><path d="M816.1 258L826.1 159L768.6 245Z" fill="#081a28" stroke="#081a28"></path><path d="M787.6 42L700.1 22L735.1 114Z" fill="#081a28" stroke="#081a28"></path><path d="M411.3 0L321.8 0L355.8 46Z" fill="#112e42" stroke="#112e42"></path><path d="M314.4 25L249.9 0L297.4 75Z" fill="#19435d" stroke="#19435d"></path><path d="M201.9 353L185.4 404L255.9 361Z" fill="#00101c" stroke="#00101c"></path><path d="M160.4 350L185.4 404L201.9 353Z" fill="#00101c" stroke="#00101c"></path><path d="M211.9 540L223.9 481L196.4 540Z" fill="#112e42" stroke="#112e42"></path><path d="M216.9 453L223.9 481L258.4 466Z" fill="#00101c" stroke="#00101c"></path><path d="M787.6 42L735.1 114L776.6 137Z" fill="#00101c" stroke="#00101c"></path><path d="M700.1 22L710.1 0L675.6 0Z" fill="#0c2435" stroke="#0c2435"></path><path d="M868.1 352L776.6 323L784.6 394Z" fill="#00101c" stroke="#00101c"></path><path d="M816.1 258L857.1 237L826.1 159Z" fill="#081a28" stroke="#081a28"></path><path d="M210.9 132L178.4 172L217.9 158Z" fill="#112e42" stroke="#112e42"></path><path d="M146.4 317L160.4 350L201.9 353Z" fill="#246688" stroke="#246688"></path><path d="M153.4 281L250.9 252L183.4 216Z" fill="#1d4e6b" stroke="#1d4e6b"></path><path d="M321.8 0L297.4 0L314.4 25Z" fill="#112e42" stroke="#112e42"></path><path d="M210.9 132L172.4 109L178.4 172Z" fill="#205a7a" stroke="#205a7a"></path><path d="M122.9 288L153.4 281L84.9 251Z" fill="#1d4e6b" stroke="#1d4e6b"></path><path d="M714.1 540L798.6 499L769.1 460Z" fill="#0c2435" stroke="#0c2435"></path><path d="M775.6 460L850.1 412L784.6 394Z" fill="#246688" stroke="#246688"></path><path d="M872.1 477L850.1 412L775.6 460Z" fill="#1d4e6b" stroke="#1d4e6b"></path><path d="M850.1 412L868.1 352L784.6 394Z" fill="#246688" stroke="#246688"></path><path d="M153.4 281L146.4 317L201.9 353Z" fill="#277297" stroke="#277297"></path><path d="M868.1 95L787.6 42L776.6 137Z" fill="#00101c" stroke="#00101c"></path><path d="M868.1 95L776.6 137L826.1 159Z" fill="#297ea6" stroke="#297ea6"></path><path d="M98.9 347L137.9 352L146.4 317Z" fill="#1d4e6b" stroke="#1d4e6b"></path><path d="M146.4 317L137.9 352L160.4 350Z" fill="#205a7a" stroke="#205a7a"></path><path d="M160.4 350L137.9 352L185.4 404Z" fill="#277297" stroke="#277297"></path><path d="M196.4 540L223.9 481L144.4 473Z" fill="#246688" stroke="#246688"></path><path d="M787.6 42L762.6 0L700.1 22Z" fill="#112e42" stroke="#112e42"></path><path d="M194.9 52L210.9 132L297.4 75Z" fill="#246688" stroke="#246688"></path><path d="M84.9 251L153.4 281L183.4 216Z" fill="#081a28" stroke="#081a28"></path><path d="M153.4 281L122.9 288L146.4 317Z" fill="#246688" stroke="#246688"></path><path d="M922.5 198L867.5 141L857.1 237Z" fill="#081a28" stroke="#081a28"></path><path d="M857.1 237L867.5 141L826.1 159Z" fill="#112e42" stroke="#112e42"></path><path d="M787.6 42L862.1 0L762.6 0Z" fill="#277297" stroke="#277297"></path><path d="M897.5 373L896.5 301L868.1 352Z" fill="#246688" stroke="#246688"></path><path d="M868.1 352L896.5 301L816.1 258Z" fill="#19435d" stroke="#19435d"></path><path d="M297.4 0L249.9 0L314.4 25Z" fill="#1d4e6b" stroke="#1d4e6b"></path><path d="M84.9 251L183.4 216L79.5 180Z" fill="#277297" stroke="#277297"></path><path d="M872.1 477L875.1 419L850.1 412Z" fill="#205a7a" stroke="#205a7a"></path><path d="M850.1 412L897.5 373L868.1 352Z" fill="#297ea6" stroke="#297ea6"></path><path d="M714.1 540L808.6 540L798.6 499Z" fill="#15384f" stroke="#15384f"></path><path d="M798.6 499L872.1 477L775.6 460Z" fill="#081a28" stroke="#081a28"></path><path d="M223.9 481L216.9 453L144.4 473Z" fill="#15384f" stroke="#15384f"></path><path d="M223.9 481L211.9 540L283.4 496Z" fill="#00101c" stroke="#00101c"></path><path d="M249.9 0L194.9 52L297.4 75Z" fill="#1d4e6b" stroke="#1d4e6b"></path><path d="M875.1 419L897.5 373L850.1 412Z" fill="#112e42" stroke="#112e42"></path><path d="M808.6 540L815.1 540L798.6 499Z" fill="#00101c" stroke="#00101c"></path><path d="M144.4 473L216.9 453L185.4 404Z" fill="#0c2435" stroke="#0c2435"></path><path d="M935.5 122L868.1 95L867.5 141Z" fill="#1d4e6b" stroke="#1d4e6b"></path><path d="M867.5 141L868.1 95L826.1 159Z" fill="#081a28" stroke="#081a28"></path><path d="M867.5 510L872.1 477L798.6 499Z" fill="#205a7a" stroke="#205a7a"></path><path d="M960 398L960 328L897.5 373Z" fill="#205a7a" stroke="#205a7a"></path><path d="M91.9 431L144.4 473L185.4 404Z" fill="#205a7a" stroke="#205a7a"></path><path d="M91.9 431L185.4 404L137.9 352Z" fill="#081a28" stroke="#081a28"></path><path d="M84.9 251L98.9 347L122.9 288Z" fill="#205a7a" stroke="#205a7a"></path><path d="M122.9 288L98.9 347L146.4 317Z" fill="#1d4e6b" stroke="#1d4e6b"></path><path d="M960 328L926.5 270L896.5 301Z" fill="#1d4e6b" stroke="#1d4e6b"></path><path d="M896.5 301L926.5 270L857.1 237Z" fill="#246688" stroke="#246688"></path><path d="M960 245L926.5 270L960 328Z" fill="#00101c" stroke="#00101c"></path><path d="M926.5 270L922.5 198L857.1 237Z" fill="#0c2435" stroke="#0c2435"></path><path d="M815.1 540L867.5 510L798.6 499Z" fill="#081a28" stroke="#081a28"></path><path d="M960 328L896.5 301L897.5 373Z" fill="#0c2435" stroke="#0c2435"></path><path d="M107.9 132L178.4 172L172.4 109Z" fill="#246688" stroke="#246688"></path><path d="M96.9 162L183.4 216L178.4 172Z" fill="#15384f" stroke="#15384f"></path><path d="M157.4 24L172.4 109L194.9 52Z" fill="#081a28" stroke="#081a28"></path><path d="M107.9 55L107.9 132L172.4 109Z" fill="#0c2435" stroke="#0c2435"></path><path d="M107.9 132L96.9 162L178.4 172Z" fill="#205a7a" stroke="#205a7a"></path><path d="M249.9 0L183.4 0L194.9 52Z" fill="#205a7a" stroke="#205a7a"></path><path d="M892.5 44L876.1 42L868.1 95Z" fill="#277297" stroke="#277297"></path><path d="M868.1 95L876.1 42L787.6 42Z" fill="#205a7a" stroke="#205a7a"></path><path d="M183.4 0L157.4 24L194.9 52Z" fill="#1d4e6b" stroke="#1d4e6b"></path><path d="M20.5 404L91.9 431L98.9 347Z" fill="#0c2435" stroke="#0c2435"></path><path d="M98.9 347L91.9 431L137.9 352Z" fill="#246688" stroke="#246688"></path><path d="M144.4 473L118.9 497L196.4 540Z" fill="#19435d" stroke="#19435d"></path><path d="M96.9 162L79.5 180L183.4 216Z" fill="#0c2435" stroke="#0c2435"></path><path d="M84.9 251L35.5 345L98.9 347Z" fill="#277297" stroke="#277297"></path><path d="M72.5 169L79.5 180L96.9 162Z" fill="#112e42" stroke="#112e42"></path><path d="M72.5 169L96.9 162L64.5 141Z" fill="#246688" stroke="#246688"></path><path d="M91.9 431L118.9 497L144.4 473Z" fill="#15384f" stroke="#15384f"></path><path d="M897.5 373L875.1 419L960 398Z" fill="#00101c" stroke="#00101c"></path><path d="M926.5 270L960 245L922.5 198Z" fill="#00101c" stroke="#00101c"></path><path d="M935.5 122L892.5 44L868.1 95Z" fill="#19435d" stroke="#19435d"></path><path d="M935.5 459L875.1 419L872.1 477Z" fill="#00101c" stroke="#00101c"></path><path d="M815.1 540L883.5 540L867.5 510Z" fill="#1d4e6b" stroke="#1d4e6b"></path><path d="M867.5 510L935.5 459L872.1 477Z" fill="#297ea6" stroke="#297ea6"></path><path d="M935.5 122L867.5 141L922.5 198Z" fill="#081a28" stroke="#081a28"></path><path d="M876.1 42L862.1 0L787.6 42Z" fill="#297ea6" stroke="#297ea6"></path><path d="M891.5 0L862.1 0L876.1 42Z" fill="#0c2435" stroke="#0c2435"></path><path d="M64.5 141L96.9 162L107.9 132Z" fill="#1d4e6b" stroke="#1d4e6b"></path><path d="M79.5 180L20.5 235L84.9 251Z" fill="#112e42" stroke="#112e42"></path><path d="M960 160L935.5 122L922.5 198Z" fill="#277297" stroke="#277297"></path><path d="M960 245L960 197L922.5 198Z" fill="#0c2435" stroke="#0c2435"></path><path d="M883.5 540L935.5 459L867.5 510Z" fill="#1d4e6b" stroke="#1d4e6b"></path><path d="M935.5 459L960 398L875.1 419Z" fill="#15384f" stroke="#15384f"></path><path d="M131.9 0L107.9 55L157.4 24Z" fill="#297ea6" stroke="#297ea6"></path><path d="M157.4 24L107.9 55L172.4 109Z" fill="#112e42" stroke="#112e42"></path><path d="M960 197L960 160L922.5 198Z" fill="#00101c" stroke="#00101c"></path><path d="M960 0L891.5 0L892.5 44Z" fill="#1d4e6b" stroke="#1d4e6b"></path><path d="M74.5 74L64.5 141L107.9 132Z" fill="#246688" stroke="#246688"></path><path d="M0 298L35.5 345L84.9 251Z" fill="#0c2435" stroke="#0c2435"></path><path d="M183.4 0L131.9 0L157.4 24Z" fill="#1d4e6b" stroke="#1d4e6b"></path><path d="M107.9 55L74.5 74L107.9 132Z" fill="#00101c" stroke="#00101c"></path><path d="M892.5 44L891.5 0L876.1 42Z" fill="#277297" stroke="#277297"></path><path d="M960 76L892.5 44L935.5 122Z" fill="#112e42" stroke="#112e42"></path><path d="M20.5 235L79.5 180L72.5 169Z" fill="#277297" stroke="#277297"></path><path d="M61.5 540L91.9 540L118.9 497Z" fill="#081a28" stroke="#081a28"></path><path d="M960 160L960 120L935.5 122Z" fill="#205a7a" stroke="#205a7a"></path><path d="M960 471L960 457L935.5 459Z" fill="#297ea6" stroke="#297ea6"></path><path d="M935.5 459L960 457L960 398Z" fill="#081a28" stroke="#081a28"></path><path d="M85.5 0L74.5 74L107.9 55Z" fill="#081a28" stroke="#081a28"></path><path d="M960 540L960 471L935.5 459Z" fill="#15384f" stroke="#15384f"></path><path d="M23.5 482L118.9 497L91.9 431Z" fill="#081a28" stroke="#081a28"></path><path d="M118.9 497L91.9 540L196.4 540Z" fill="#19435d" stroke="#19435d"></path><path d="M0 240L20.5 235L0 168Z" fill="#0c2435" stroke="#0c2435"></path><path d="M0 168L20.5 235L72.5 169Z" fill="#1d4e6b" stroke="#1d4e6b"></path><path d="M960 120L960 76L935.5 122Z" fill="#246688" stroke="#246688"></path><path d="M0 337L20.5 404L35.5 345Z" fill="#00101c" stroke="#00101c"></path><path d="M35.5 345L20.5 404L98.9 347Z" fill="#19435d" stroke="#19435d"></path><path d="M20.5 235L0 298L84.9 251Z" fill="#19435d" stroke="#19435d"></path><path d="M131.9 0L85.5 0L107.9 55Z" fill="#00101c" stroke="#00101c"></path><path d="M0 168L72.5 169L64.5 141Z" fill="#1d4e6b" stroke="#1d4e6b"></path><path d="M20.5 235L0 240L0 298Z" fill="#112e42" stroke="#112e42"></path><path d="M0 168L64.5 141L0 133Z" fill="#246688" stroke="#246688"></path><path d="M0 298L0 337L35.5 345Z" fill="#0c2435" stroke="#0c2435"></path><path d="M0 413L22.5 452L20.5 404Z" fill="#00101c" stroke="#00101c"></path><path d="M20.5 404L22.5 452L91.9 431Z" fill="#081a28" stroke="#081a28"></path><path d="M23.5 482L61.5 540L118.9 497Z" fill="#205a7a" stroke="#205a7a"></path><path d="M883.5 540L960 540L935.5 459Z" fill="#205a7a" stroke="#205a7a"></path><path d="M0 133L64.5 141L0 80Z" fill="#0c2435" stroke="#0c2435"></path><path d="M22.5 452L23.5 482L91.9 431Z" fill="#081a28" stroke="#081a28"></path><path d="M0 482L23.5 482L22.5 452Z" fill="#0c2435" stroke="#0c2435"></path><path d="M0 337L0 413L20.5 404Z" fill="#246688" stroke="#246688"></path><path d="M960 76L960 0L892.5 44Z" fill="#297ea6" stroke="#297ea6"></path><path d="M0 80L64.5 141L74.5 74Z" fill="#15384f" stroke="#15384f"></path><path d="M0 413L0 446L22.5 452Z" fill="#1d4e6b" stroke="#1d4e6b"></path><path d="M0 446L0 482L22.5 452Z" fill="#081a28" stroke="#081a28"></path><path d="M23.5 482L0 540L61.5 540Z" fill="#0c2435" stroke="#0c2435"></path><path d="M0 0L0 80L74.5 74Z" fill="#277297" stroke="#277297"></path><path d="M0 482L0 540L23.5 482Z" fill="#15384f" stroke="#15384f"></path><path d="M85.5 0L0 0L74.5 74Z" fill="#19435d" stroke="#19435d"></path></g></svg>